<svg width="71" height="73" viewBox="0 0 71 73" fill="none" xmlns="http://www.w3.org/2000/svg">
<g clip-path="url(#clip0_1_441)">
<path d="M47.5 53.5C47.5 53.5 60.8 50.0001 62.1 49.9001C63.3 49.7001 68.2 48.2 69.1 52C70 55.8 66.8 57.3 66.8 57.3C66.8 57.3 52.5 64.6 45.1 68.7C37.7 72.8 32.7 70.2 32.7 70.2C32.7 70.2 23.6 65.8 19.4 63.1C15.2 60.4 11.4 62.0001 6.7 63.4001C2 64.8001 1.5 61 1.5 61V46.6C1.5 46.6 1.5 44.2001 5.1 43.7001C8.7 43.2001 17.2 42.3 17.2 42.3C17.2 42.3 23.4 42.5 26.3 44.3C29.2 46.1 34.9 48.2001 34.9 48.2001C34.9 48.2001 38.5 49.3 41.1 49.3C43.3 49.4 46.6 49.7 47.5 53.5Z" stroke="#E0D0A6" stroke-width="2.8346" stroke-miterlimit="10" stroke-linecap="round"/>
<path d="M47.5 53.5C47.5 53.5 47.2 56.2 44.5 57.4C41.8 58.6 38 60.3 33.3 58.6C28.6 56.9 26.6 55.9 26.6 55.9" stroke="#E0D0A6" stroke-width="2.8346" stroke-miterlimit="10" stroke-linecap="round"/>
<path d="M25.7 43.2999C25.7 43.2999 26.9999 35.6999 34.0999 37.2999C34.0999 37.2999 37.7999 32.4999 42.0999 34.3999C42.0999 34.3999 46.6 31.0999 52.7 35.4999C56.9 38.4999 56.9 43.4999 56.9 43.4999C56.9 43.4999 60.7999 45.2999 62.0999 49.8999" stroke="#E0D0A6" stroke-width="2.8346" stroke-miterlimit="10" stroke-linecap="round"/>
<path d="M42.3999 33.6001C42.3999 33.6001 41.3999 23.7001 45.2999 15.6001C45.2999 15.6001 42.2999 10.7001 44.5999 7.0001C46.8999 3.3001 52.6999 1.6001 52.6999 1.6001C52.6999 1.6001 54.4999 5.9001 53.5999 10.6001C52.6999 15.3001 45.7999 15.8001 45.7999 15.8001" stroke="#E0D0A6" stroke-width="2.8346" stroke-miterlimit="10" stroke-linecap="round"/>
<path d="M42.5 31.4001C42.5 31.4001 43.3 26.0001 48.3 25.1001C48.3 25.1001 49.2 19.2001 55.5 17.9001C61.8 16.6001 65.4 20.5001 65.4 20.5001C65.4 20.5001 63.1 27.5001 57.4 28.9001C51.7 30.3001 48.4 25.3001 48.4 25.3001" stroke="#E0D0A6" stroke-width="2.8346" stroke-miterlimit="10" stroke-linecap="round"/>
<path d="M42 27.8999C42 27.8999 41 21.0999 36.3 18.1999C36.3 18.1999 37.1 10.5999 32.1 7.59988C27.1 4.59988 16.4 7.69988 16.4 7.69988C16.4 7.69988 15.3 16.0999 23.9 20.8999C30 24.2999 36.4 18.0999 36.4 18.0999" stroke="#E0D0A6" stroke-width="2.8346" stroke-miterlimit="10" stroke-linecap="round"/>
</g>
<defs>
<clipPath id="clip0_1_441">
<rect width="70.6" height="72.4" fill="white"/>
</clipPath>
</defs>
</svg>
