<svg width="64" height="60" viewBox="0 0 64 60" fill="none" xmlns="http://www.w3.org/2000/svg">
<g clip-path="url(#clip0_1_431)">
<path d="M47.3779 16.6079C47.3779 16.6079 45.1882 19.8719 39.4152 20.2559C33.6423 20.7359 33.2441 16.0319 28.2675 20.8319C23.2908 25.6319 13.8351 21.9839 16.6221 18.2399C19.409 14.4959 30.0591 6.91194 30.0591 6.91194C30.0591 6.91194 43.3966 -4.70406 56.2364 5.66394C69.4743 16.4159 57.7294 31.3919 57.7294 31.3919" stroke="#E0D0A6" stroke-width="2.8346" stroke-miterlimit="10" stroke-linecap="round"/>
<path d="M30.0591 6.91209C30.0591 6.91209 19.0109 -2.3999 7.76366 6.14409C-5.17569 15.9361 5.77299 31.2961 5.77299 31.2961" stroke="#E0D0A6" stroke-width="2.8346" stroke-miterlimit="10" stroke-linecap="round"/>
<path d="M44.2923 19.2959L57.1321 31.4879C59.0233 33.2159 59.0233 36.1919 57.1321 37.9199C55.241 39.7439 52.255 39.7439 50.4634 37.9199L44.0933 31.7759" stroke="#E0D0A6" stroke-width="2.8346" stroke-miterlimit="10" stroke-linecap="round"/>
<path d="M44.1928 31.968L50.4634 38.016C52.3546 39.84 52.3546 42.72 50.4634 44.448C48.5723 46.272 45.5863 46.272 43.7947 44.448L37.4246 38.304" stroke="#E0D0A6" stroke-width="2.8346" stroke-miterlimit="10" stroke-linecap="round"/>
<path d="M37.4246 38.3999L43.6952 44.4479C45.5863 46.2719 45.5863 49.1519 43.6952 50.8799C41.804 52.7039 38.818 52.7039 37.0264 50.8799L34.5381 48.4799" stroke="#E0D0A6" stroke-width="2.8346" stroke-miterlimit="10" stroke-linecap="round"/>
<path d="M33.9409 54.336L30.8553 57.408C29.0637 59.136 26.1772 59.136 24.4852 57.408C22.6936 55.68 22.6936 52.896 24.4852 51.264L27.6702 48.192C29.4619 46.464 32.3483 46.464 34.0404 48.192C35.7325 49.92 35.7325 52.704 33.9409 54.336Z" stroke="#E0D0A6" stroke-width="2.8346" stroke-miterlimit="10" stroke-linecap="round"/>
<path d="M27.5708 48.192L24.3857 51.264C22.5941 52.992 19.7076 52.992 18.0156 51.264C16.224 49.536 16.224 46.752 18.0156 45.12L21.2006 42.048C22.9922 40.32 25.8787 40.32 27.5708 42.048C29.3624 43.776 29.3624 46.56 27.5708 48.192Z" stroke="#E0D0A6" stroke-width="2.8346" stroke-miterlimit="10" stroke-linecap="round"/>
<path d="M21.2007 42.0479L18.0156 45.1199C16.224 46.8479 13.3375 46.8479 11.6455 45.1199C9.85386 43.3919 9.85386 40.6079 11.6455 38.9759L14.8305 35.9039C16.6221 34.1759 19.5086 34.1759 21.2007 35.9039C22.8927 37.6319 22.8927 40.4159 21.2007 42.0479Z" stroke="#E0D0A6" stroke-width="2.8346" stroke-miterlimit="10" stroke-linecap="round"/>
<path d="M14.7309 35.9041L11.4463 39.0721C9.75424 40.7041 7.06684 40.7041 5.37477 39.0721C3.48364 37.2481 3.48364 34.3681 5.37477 32.6401L8.36078 29.7601C10.1524 28.0321 13.0388 28.0321 14.7309 29.7601C16.5225 31.4881 16.5225 34.1761 14.7309 35.9041Z" stroke="#E0D0A6" stroke-width="2.8346" stroke-miterlimit="10" stroke-linecap="round"/>
</g>
<defs>
<clipPath id="clip0_1_431">
<rect width="64" height="60" fill="white"/>
</clipPath>
</defs>
</svg>
