<svg width="75" height="74" viewBox="0 0 75 74" fill="none" xmlns="http://www.w3.org/2000/svg">
<g clip-path="url(#clip0_1_423)">
<path d="M36.7 48.8C43.2722 48.8 48.6 43.4722 48.6 36.9C48.6 30.3278 43.2722 25 36.7 25C30.1278 25 24.8 30.3278 24.8 36.9C24.8 43.4722 30.1278 48.8 36.7 48.8Z" stroke="#E0D0A6" stroke-width="2.8346" stroke-miterlimit="10" stroke-linecap="round"/>
<path d="M10.5 19.5999C15.5258 19.5999 19.6 15.5257 19.6 10.4999C19.6 5.47411 15.5258 1.3999 10.5 1.3999C5.47423 1.3999 1.40002 5.47411 1.40002 10.4999C1.40002 15.5257 5.47423 19.5999 10.5 19.5999Z" stroke="#E0D0A6" stroke-width="2.8346" stroke-miterlimit="10" stroke-linecap="round"/>
<path d="M20.7 72.4C24.4003 72.4 27.4 69.4003 27.4 65.7C27.4 61.9997 24.4003 59 20.7 59C16.9997 59 14 61.9997 14 65.7C14 69.4003 16.9997 72.4 20.7 72.4Z" stroke="#E0D0A6" stroke-width="2.8346" stroke-miterlimit="10" stroke-linecap="round"/>
<path d="M68.7 34.5999C72.0689 34.5999 74.8 31.8688 74.8 28.4999C74.8 25.131 72.0689 22.3999 68.7 22.3999C65.331 22.3999 62.6 25.131 62.6 28.4999C62.6 31.8688 65.331 34.5999 68.7 34.5999Z" fill="#E0D0A6"/>
<path d="M48.1 34.4001L66 29.3" stroke="#E0D0A6" stroke-width="2.8346" stroke-miterlimit="10" stroke-linecap="round"/>
<path d="M28.4 28.5001L17.1 17.1001" stroke="#E0D0A6" stroke-width="2.8346" stroke-miterlimit="10" stroke-linecap="round"/>
<path d="M31.1 47.5L24.3 59.8" stroke="#E0D0A6" stroke-width="2.8346" stroke-miterlimit="10" stroke-linecap="round"/>
</g>
<defs>
<clipPath id="clip0_1_423">
<rect width="74.9" height="73.8" fill="white"/>
</clipPath>
</defs>
</svg>
