<svg width="70" height="63" viewBox="0 0 70 63" fill="none" xmlns="http://www.w3.org/2000/svg">
<g clip-path="url(#clip0_1_479)">
<path d="M8.1 29.6L5.4 40.8L19.6 32.4H31.4L38.8 30.4L44.5 23.3L45.5 16.9L44.3 8.99998L37.9 2.89998C37.9 2.89998 34.2 1.19998 33.2 1.49998C32.2 1.79998 14.9 1.49998 14.9 1.49998C14.9 1.49998 10.2 3.49998 9.2 3.89998C8.2 4.29998 5.4 7.29998 5.4 7.29998C5.4 7.29998 5.4 8.69998 4 9.99998C2.6 11.3 1.6 15.4 1.6 15.4L1 20.5L3 24.2L8.1 29.6Z" fill="#D05559"/>
<path d="M24.7001 32.6L34.3 32L41.6 28.5L44.7001 23.3L53.4001 21.5L57.9001 23.1L64.6 27.2C64.6 27.2 65.9001 30.1 65.9001 31C65.9001 32 67.2 37.1 67.2 37.1C67.2 37.1 67.2 40.9 66.6 42.5C66 44.1 65 44.7 64.1 45.7C63.1 46.7 60.3 49.8 60.3 49.8L62.5 60.3L50.1 52.3H41.2001L32.6 52L28.1 48.8L24.6 44.7L23.3 36.7L24.7001 32.6Z" fill="#E0D0A6"/>
<path d="M23.7999 32.8C23.3999 34.2 23.2 35.6 23.2 37.2C23.2 45.8 30.1999 52.8 38.7999 52.8H50.9L63 60.8L60.2999 50.5C64.7999 47.7 67.8 42.8 67.8 37.2C67.8 28.6 60.8 21.6 52.2 21.6H45.5999" stroke="#324B7B" stroke-width="2.8346" stroke-miterlimit="10" stroke-linecap="round" stroke-linejoin="round"/>
<path d="M30.4 1.40002H17C8.40002 1.40002 1.40002 8.40002 1.40002 17C1.40002 22.5 4.30002 27.4 8.70002 30.2L5.30002 41.3L19.2 32.7H30.5C39 32.6 46 25.6 46 17C46 8.40002 39 1.40002 30.4 1.40002Z" stroke="#324B7B" stroke-width="2.8346" stroke-miterlimit="10" stroke-linecap="round" stroke-linejoin="round"/>
<path d="M13 20.1C14.436 20.1 15.6 18.936 15.6 17.5C15.6 16.0641 14.436 14.9 13 14.9C11.5641 14.9 10.4 16.0641 10.4 17.5C10.4 18.936 11.5641 20.1 13 20.1Z" fill="#324B7B"/>
<path d="M23.6 20.1C25.0359 20.1 26.2 18.936 26.2 17.5C26.2 16.0641 25.0359 14.9 23.6 14.9C22.1641 14.9 21 16.0641 21 17.5C21 18.936 22.1641 20.1 23.6 20.1Z" fill="#324B7B"/>
<path d="M34.1 20.1C35.5359 20.1 36.7 18.936 36.7 17.5C36.7 16.0641 35.5359 14.9 34.1 14.9C32.6641 14.9 31.5 16.0641 31.5 17.5C31.5 18.936 32.6641 20.1 34.1 20.1Z" fill="#324B7B"/>
<path d="M34.7999 41C36.2359 41 37.4 39.836 37.4 38.4001C37.4 36.9641 36.2359 35.8 34.7999 35.8C33.364 35.8 32.2 36.9641 32.2 38.4001C32.2 39.836 33.364 41 34.7999 41Z" fill="#324B7B"/>
<path d="M45.2999 41C46.7359 41 47.9 39.836 47.9 38.4001C47.9 36.9641 46.7359 35.8 45.2999 35.8C43.864 35.8 42.7 36.9641 42.7 38.4001C42.7 39.836 43.864 41 45.2999 41Z" fill="#324B7B"/>
<path d="M55.9001 41C57.336 41 58.5 39.836 58.5 38.4001C58.5 36.9641 57.336 35.8 55.9001 35.8C54.4641 35.8 53.3 36.9641 53.3 38.4001C53.3 39.836 54.4641 41 55.9001 41Z" fill="#324B7B"/>
</g>
<defs>
<clipPath id="clip0_1_479">
<rect width="69.2" height="62.2" fill="white"/>
</clipPath>
</defs>
</svg>
