<svg width="79" height="59" viewBox="0 0 79 59" fill="none" xmlns="http://www.w3.org/2000/svg">
<g clip-path="url(#clip0_1_463)">
<path d="M10.4 22.9L15.5 48.2L37.8 28.3L25 13.7L20.2 24.2L10.4 22.9Z" fill="#3D5588"/>
<path d="M39.7 27.7L62.7 50L67.8 23.3L56.9 22.6L53.4 13.1L39.7 27.7Z" fill="#D05559"/>
<path d="M19.2 47L37.7999 28.3L62.7 50L48.5 44.3L38.5999 43.8L30 44.3L19.2 47Z" fill="#E0D0A6"/>
<path d="M39.1 56.9C51.8025 56.9 62.1 54.1689 62.1 50.7999C62.1 47.431 51.8025 44.7 39.1 44.7C26.3974 44.7 16.1 47.431 16.1 50.7999C16.1 54.1689 26.3974 56.9 39.1 56.9Z" fill="#CB984C"/>
<path d="M52.6 10.1L62.1 2.00002L72.2 1.40002L76.7 8.50002L71.6 22.4L67 10.3L52.6 10.1Z" fill="#324B7B" stroke="#324B7B" stroke-width="2.8346" stroke-miterlimit="10" stroke-linecap="round" stroke-linejoin="round"/>
<path d="M71.6 22.4L57.1 22.6L52.6 10.1L67 10.3L71.6 22.4Z" stroke="#324B7B" stroke-width="2.8346" stroke-miterlimit="10" stroke-linecap="round" stroke-linejoin="round"/>
<path d="M66.0232 18.2269C66.7723 16.6874 65.6081 14.5775 63.423 13.5144C61.2379 12.4512 58.8593 12.8374 58.1103 14.3769C57.3612 15.9164 58.5254 18.0263 60.7105 19.0894C62.8956 20.1526 65.2742 19.7664 66.0232 18.2269Z" fill="#324B7B"/>
<path d="M58.4 9.19995L15 49.9" stroke="#324B7B" stroke-width="2.8346" stroke-miterlimit="10" stroke-linecap="round" stroke-linejoin="round"/>
<path d="M70.1 12.3L63.3 50.5" stroke="#324B7B" stroke-width="2.8346" stroke-miterlimit="10" stroke-linecap="round" stroke-linejoin="round"/>
<path d="M25.5 10.1L16 2.00002L5.90002 1.40002L1.40002 8.50002L6.50002 22.4L11.1 10.3L25.5 10.1Z" fill="#324B7B" stroke="#324B7B" stroke-width="2.8346" stroke-miterlimit="10" stroke-linecap="round" stroke-linejoin="round"/>
<path d="M6.5 22.4L21 22.6L25.5 10.1L11.1 10.3L6.5 22.4Z" stroke="#324B7B" stroke-width="2.8346" stroke-miterlimit="10" stroke-linecap="round" stroke-linejoin="round"/>
<path d="M17.3463 19.0989C19.5315 18.0357 20.6956 15.9259 19.9466 14.3864C19.1975 12.8469 16.819 12.4607 14.6338 13.5239C12.4487 14.587 11.2846 16.6969 12.0336 18.2364C12.7827 19.7759 15.1612 20.162 17.3463 19.0989Z" fill="#324B7B"/>
<path d="M19.7 9.19995L63.0999 49.9" stroke="#324B7B" stroke-width="2.8346" stroke-miterlimit="10" stroke-linecap="round" stroke-linejoin="round"/>
<path d="M8 12.3L14.8 50.5" stroke="#324B7B" stroke-width="2.8346" stroke-miterlimit="10" stroke-linecap="round" stroke-linejoin="round"/>
<path d="M39 57.3C52.2548 57.3 63 54.4346 63 50.9C63 47.3654 52.2548 44.5 39 44.5C25.7452 44.5 15 47.3654 15 50.9C15 54.4346 25.7452 57.3 39 57.3Z" stroke="#324B7B" stroke-width="2.8346" stroke-miterlimit="10" stroke-linecap="round" stroke-linejoin="round"/>
</g>
<defs>
<clipPath id="clip0_1_463">
<rect width="78.1" height="58.7" fill="white"/>
</clipPath>
</defs>
</svg>
