<svg width="80" height="80" viewBox="0 0 80 80" fill="none" xmlns="http://www.w3.org/2000/svg">
<g clip-path="url(#clip0_582_145)">
<path d="M13.1 38.6L10.4 49.8L24.6 41.4H36.4L43.8 39.4L49.5 32.3L50.5 25.9L49.3 18L42.9 11.9C42.9 11.9 39.2 10.2 38.2 10.5C37.2 10.8 19.9 10.5 19.9 10.5C19.9 10.5 15.2 12.5 14.2 12.9C13.2 13.3 10.4 16.3 10.4 16.3C10.4 16.3 10.4 17.7 9 19C7.6 20.3 6.6 24.4 6.6 24.4L6 29.5L8 33.2L13.1 38.6Z" fill="#D05559"/>
<path d="M29.7001 41.6L39.3 41L46.6 37.5L49.7001 32.3L58.4001 30.5L62.9001 32.1L69.6 36.2C69.6 36.2 70.9001 39.1 70.9001 40C70.9001 41 72.2 46.1 72.2 46.1C72.2 46.1 72.2 49.9 71.6 51.5C71 53.1 70 53.7 69.1 54.7C68.1 55.7 65.3 58.8 65.3 58.8L67.5 69.3L55.1 61.3H46.2001L37.6 61L33.1 57.8L29.6 53.7L28.3 45.7L29.7001 41.6Z" fill="#E0D0A6"/>
<path d="M28.7999 41.8C28.3999 43.2 28.2 44.6 28.2 46.2C28.2 54.8 35.1999 61.8 43.7999 61.8H55.9L68 69.8L65.2999 59.5C69.7999 56.7 72.8 51.8 72.8 46.2C72.8 37.6 65.8 30.6 57.2 30.6H50.5999" stroke="#324B7B" stroke-width="2.8346" stroke-miterlimit="10" stroke-linecap="round" stroke-linejoin="round"/>
<path d="M35.3999 10.4H21.9999C13.3999 10.4 6.3999 17.4 6.3999 26C6.3999 31.5 9.2999 36.4 13.6999 39.2L10.2999 50.3L24.1999 41.7H35.4999C43.9999 41.6 50.9999 34.6 50.9999 26C50.9999 17.4 43.9999 10.4 35.3999 10.4Z" stroke="#324B7B" stroke-width="2.8346" stroke-miterlimit="10" stroke-linecap="round" stroke-linejoin="round"/>
<path d="M17.9999 29.1C19.4358 29.1 20.5999 27.936 20.5999 26.5C20.5999 25.0641 19.4358 23.9 17.9999 23.9C16.564 23.9 15.3999 25.0641 15.3999 26.5C15.3999 27.936 16.564 29.1 17.9999 29.1Z" fill="#324B7B"/>
<path d="M28.6 29.1C30.0359 29.1 31.2 27.936 31.2 26.5C31.2 25.0641 30.0359 23.9 28.6 23.9C27.1641 23.9 26 25.0641 26 26.5C26 27.936 27.1641 29.1 28.6 29.1Z" fill="#324B7B"/>
<path d="M39.1 29.1C40.5359 29.1 41.7 27.936 41.7 26.5C41.7 25.0641 40.5359 23.9 39.1 23.9C37.6641 23.9 36.5 25.0641 36.5 26.5C36.5 27.936 37.6641 29.1 39.1 29.1Z" fill="#324B7B"/>
<path d="M39.7999 50C41.2359 50 42.4 48.836 42.4 47.4001C42.4 45.9641 41.2359 44.8 39.7999 44.8C38.364 44.8 37.2 45.9641 37.2 47.4001C37.2 48.836 38.364 50 39.7999 50Z" fill="#324B7B"/>
<path d="M50.2999 50C51.7359 50 52.9 48.836 52.9 47.4001C52.9 45.9641 51.7359 44.8 50.2999 44.8C48.864 44.8 47.7 45.9641 47.7 47.4001C47.7 48.836 48.864 50 50.2999 50Z" fill="#324B7B"/>
<path d="M60.9001 50C62.336 50 63.5 48.836 63.5 47.4001C63.5 45.9641 62.336 44.8 60.9001 44.8C59.4641 44.8 58.3 45.9641 58.3 47.4001C58.3 48.836 59.4641 50 60.9001 50Z" fill="#324B7B"/>
</g>
<defs>
<clipPath id="clip0_582_145">
<rect width="69.2" height="62.2" fill="white" transform="translate(5 9)"/>
</clipPath>
</defs>
</svg>
