<svg width="80" height="80" viewBox="0 0 80 80" fill="none" xmlns="http://www.w3.org/2000/svg">
<g clip-path="url(#clip0_582_119)">
<path d="M11.3999 33.9L16.4999 59.2L38.7999 39.3L25.9999 24.7L21.1999 35.2L11.3999 33.9Z" fill="#3D5588"/>
<path d="M40.7 38.7L63.7 61L68.8 34.3L57.9 33.6L54.4 24.1L40.7 38.7Z" fill="#D05559"/>
<path d="M20.2 58L38.7999 39.3L63.7 61L49.5 55.3L39.5999 54.8L31 55.3L20.2 58Z" fill="#E0D0A6"/>
<path d="M40.1001 67.9C52.8026 67.9 63.1001 65.1689 63.1001 61.7999C63.1001 58.431 52.8026 55.7 40.1001 55.7C27.3975 55.7 17.1001 58.431 17.1001 61.7999C17.1001 65.1689 27.3975 67.9 40.1001 67.9Z" fill="#CB984C"/>
<path d="M53.6001 21.1L63.1001 13L73.2001 12.4L77.7001 19.5L72.6001 33.4L68.0001 21.3L53.6001 21.1Z" fill="#324B7B" stroke="#324B7B" stroke-width="2.8346" stroke-miterlimit="10" stroke-linecap="round" stroke-linejoin="round"/>
<path d="M72.6001 33.4L58.1001 33.6L53.6001 21.1L68.0001 21.3L72.6001 33.4Z" stroke="#324B7B" stroke-width="2.8346" stroke-miterlimit="10" stroke-linecap="round" stroke-linejoin="round"/>
<path d="M67.0231 29.2269C67.7722 27.6874 66.608 25.5775 64.4229 24.5144C62.2378 23.4512 59.8592 23.8374 59.1102 25.3769C58.3611 26.9164 59.5253 29.0263 61.7104 30.0894C63.8955 31.1526 66.2741 30.7664 67.0231 29.2269Z" fill="#324B7B"/>
<path d="M59.4 20.2L16 60.9" stroke="#324B7B" stroke-width="2.8346" stroke-miterlimit="10" stroke-linecap="round" stroke-linejoin="round"/>
<path d="M71.1 23.3L64.3 61.5" stroke="#324B7B" stroke-width="2.8346" stroke-miterlimit="10" stroke-linecap="round" stroke-linejoin="round"/>
<path d="M26.4999 21.1L16.9999 13L6.8999 12.4L2.3999 19.5L7.4999 33.4L12.0999 21.3L26.4999 21.1Z" fill="#324B7B" stroke="#324B7B" stroke-width="2.8346" stroke-miterlimit="10" stroke-linecap="round" stroke-linejoin="round"/>
<path d="M7.5 33.4L22 33.6L26.5 21.1L12.1 21.3L7.5 33.4Z" stroke="#324B7B" stroke-width="2.8346" stroke-miterlimit="10" stroke-linecap="round" stroke-linejoin="round"/>
<path d="M18.3462 30.0989C20.5313 29.0357 21.6955 26.9259 20.9465 25.3864C20.1974 23.8469 17.8188 23.4607 15.6337 24.5239C13.4486 25.587 12.2845 27.6969 13.0335 29.2364C13.7825 30.7759 16.1611 31.162 18.3462 30.0989Z" fill="#324B7B"/>
<path d="M20.7 20.2L64.0999 60.9" stroke="#324B7B" stroke-width="2.8346" stroke-miterlimit="10" stroke-linecap="round" stroke-linejoin="round"/>
<path d="M9 23.3L15.8 61.5" stroke="#324B7B" stroke-width="2.8346" stroke-miterlimit="10" stroke-linecap="round" stroke-linejoin="round"/>
<path d="M40 68.3C53.2548 68.3 64 65.4346 64 61.9C64 58.3654 53.2548 55.5 40 55.5C26.7452 55.5 16 58.3654 16 61.9C16 65.4346 26.7452 68.3 40 68.3Z" stroke="#324B7B" stroke-width="2.8346" stroke-miterlimit="10" stroke-linecap="round" stroke-linejoin="round"/>
</g>
<defs>
<clipPath id="clip0_582_119">
<rect width="78.1" height="58.7" fill="white" transform="translate(1 11)"/>
</clipPath>
</defs>
</svg>
