<svg width="52" height="50" viewBox="0 0 52 50" fill="none" xmlns="http://www.w3.org/2000/svg">
<g clip-path="url(#clip0_1_47)">
<path d="M7.79409 28.0882L0.73527 41.0294C-1.47061 45.1471 1.47056 50 6.02939 50C8.23527 50 10.2941 48.8235 11.3235 46.9118C13.3823 43.0882 13.3823 38.5294 11.3235 34.7059L7.79409 28.0882Z" fill="#3D5588"/>
<path d="M23.3824 0C18.8235 0 15.8824 4.85294 18.0882 8.97059L38.6765 46.9118C39.7059 48.8235 41.7647 50 43.9706 50C46.1765 50 48.2353 48.8235 49.2647 46.9118C50.2941 45.1471 50.2941 42.7941 49.2647 41.0294L28.6765 3.23529C27.6471 1.17647 25.5882 0 23.3824 0Z" fill="#3D5588"/>
<path d="M34.1176 0H23.3823C18.8235 0 15.8823 4.85294 18.0882 8.82353L19.5588 11.6176H33.9706C36.9117 11.6176 39.2647 13.9706 39.2647 16.9118C39.2647 19.8529 37.0588 22.0588 34.1176 22.0588H21.6176L11.3235 3.08824C10.2941 1.17647 8.23527 0 6.02939 0C1.47056 0 -1.47061 4.85294 0.73527 8.97059L21.3235 46.9118C22.3529 48.8235 24.4117 50 26.6176 50C28.8235 50 30.8823 48.8235 31.9117 46.9118C32.9412 45.1471 32.9412 42.7941 31.9117 41.0294L27.9412 33.8235H33.9706C43.3823 33.8235 50.8823 26.1765 50.8823 16.9118C50.8823 7.64706 43.3823 0 34.1176 0Z" fill="#D05559"/>
</g>
<defs>
<clipPath id="clip0_1_47">
<rect width="51.0294" height="50" fill="white"/>
</clipPath>
</defs>
</svg>
