<svg width="57" height="50" viewBox="0 0 57 50" fill="none" xmlns="http://www.w3.org/2000/svg">
<g clip-path="url(#clip0_1_51)">
<path d="M9.21054 0.292389C4.67838 0.292389 1.7544 5.11695 3.94739 9.21052L24.4152 46.9298C25.4386 48.8304 27.4854 50 29.6784 50C31.8714 50 33.9181 48.8304 34.9415 46.9298C35.9649 45.1754 35.9649 42.8362 34.9415 41.0819L14.4737 3.36256C13.4503 1.46198 11.4035 0.292389 9.21054 0.292389Z" fill="#D05559"/>
<path d="M26.462 0C21.9298 0 19.0059 4.82456 21.1989 8.91813L41.6667 46.6374C42.6901 48.538 44.7369 49.7076 46.9298 49.7076C49.1228 49.7076 51.1696 48.538 52.193 46.6374C53.2164 44.883 53.2164 42.5439 52.193 40.7895L31.7252 3.21637C30.7018 1.16959 28.655 0 26.462 0Z" fill="#3D5588"/>
<path d="M31.7252 3.21639C30.7018 1.3158 28.655 0.14621 26.462 0.14621C21.9298 0.14621 19.0059 4.97077 21.1989 9.06434L33.4796 31.2866C35.8187 27.0468 40.7895 27.4854 42.6901 23.2456L31.7252 3.21639Z" fill="#3D5588"/>
<path d="M50.1462 0.14621C54.6784 0.14621 57.6024 4.97077 55.4094 9.06434L43.5673 30.7018C42.5439 32.6023 40.4971 33.7719 38.3041 33.7719C36.1112 33.7719 34.0644 32.6023 33.041 30.7018C32.0176 28.9474 32.0176 26.6082 33.041 24.8538L44.8831 3.21639C46.0527 1.3158 47.9533 0.14621 50.1462 0.14621Z" fill="#3D5588"/>
<path d="M24.4152 46.6374C25.4386 48.538 27.4854 49.7076 29.6784 49.7076C34.2106 49.7076 37.1345 44.8831 34.9415 40.7895L22.6608 18.5673C20.3217 22.807 15.3509 22.3684 13.4503 26.6082L24.4152 46.6374Z" fill="#D05559"/>
<path d="M5.99411 49.8538C1.46195 49.8538 -1.46203 44.883 0.730955 40.9357L12.5731 19.1521C13.5965 17.2515 15.6432 16.0819 17.8362 16.0819C20.0292 16.0819 22.076 17.2515 23.0994 19.1521C24.1228 20.9064 24.1228 23.2456 23.0994 25L11.2573 46.6374C10.2339 48.538 8.1871 49.8538 5.99411 49.8538Z" fill="#D05559"/>
</g>
<defs>
<clipPath id="clip0_1_51">
<rect width="56.1404" height="50" fill="white"/>
</clipPath>
</defs>
</svg>
