<svg width="80" height="80" viewBox="0 0 80 80" fill="none" xmlns="http://www.w3.org/2000/svg">
<g clip-path="url(#clip0_582_243)">
<path d="M21.2104 15.2924C16.6783 15.2924 13.7543 20.1169 15.9473 24.2105L36.4151 61.9298C37.4385 63.8304 39.4853 65 41.6783 65C43.8712 65 45.918 63.8304 46.9414 61.9298C47.9648 60.1754 47.9648 57.8362 46.9414 56.0818L26.4736 18.3625C25.4502 16.4619 23.4034 15.2924 21.2104 15.2924Z" fill="#D05559"/>
<path d="M38.4619 15C33.9297 15 31.0057 19.8246 33.1987 23.9181L53.6666 61.6374C54.69 63.538 56.7367 64.7076 58.9297 64.7076C61.1227 64.7076 63.1695 63.538 64.1929 61.6374C65.2163 59.883 65.2163 57.5439 64.1929 55.7895L43.725 18.2164C42.7017 16.1696 40.6549 15 38.4619 15Z" fill="#3D5588"/>
<path d="M43.725 18.2164C42.7017 16.3158 40.6549 15.1462 38.4619 15.1462C33.9297 15.1462 31.0057 19.9708 33.1987 24.0644L45.4794 46.2866C47.8186 42.0468 52.7894 42.4854 54.69 38.2457L43.725 18.2164Z" fill="#3D5588"/>
<path d="M62.1462 15.1462C66.6784 15.1462 69.6024 19.9708 67.4094 24.0644L55.5673 45.7018C54.5439 47.6024 52.4971 48.772 50.3041 48.772C48.1112 48.772 46.0644 47.6024 45.041 45.7018C44.0176 43.9474 44.0176 41.6082 45.041 39.8538L56.8831 18.2164C58.0527 16.3158 59.9533 15.1462 62.1462 15.1462Z" fill="#3D5588"/>
<path d="M36.4151 61.6374C37.4385 63.538 39.4853 64.7076 41.6783 64.7076C46.2104 64.7076 49.1344 59.8831 46.9414 55.7895L34.6607 33.5673C32.3215 37.807 27.3508 37.3684 25.4502 41.6082L36.4151 61.6374Z" fill="#D05559"/>
<path d="M17.9941 64.8538C13.4619 64.8538 10.538 59.8831 12.731 55.9357L24.5731 34.1521C25.5965 32.2515 27.6432 31.0819 29.8362 31.0819C32.0292 31.0819 34.076 32.2515 35.0994 34.1521C36.1228 35.9065 36.1228 38.2457 35.0994 40L23.2573 61.6375C22.2339 63.538 20.1871 64.8538 17.9941 64.8538Z" fill="#D05559"/>
</g>
<defs>
<clipPath id="clip0_582_243">
<rect width="56.1404" height="50" fill="white" transform="translate(12 15)"/>
</clipPath>
</defs>
</svg>
