<svg width="80" height="80" viewBox="0 0 80 80" fill="none" xmlns="http://www.w3.org/2000/svg">
<g clip-path="url(#clip0_582_212)">
<path d="M61.3788 56.2256L49.9582 35.3342C48.4261 39.0947 45.6406 42.7158 42.7158 45.7799L51.4902 61.7966C52.4651 63.6072 54.415 64.7214 56.5041 64.7214C58.5933 64.7214 60.4038 63.6072 61.518 61.7966C62.3537 60.1253 62.3537 58.0362 61.3788 56.2256Z" fill="#3D5588"/>
<path fill-rule="evenodd" clip-rule="evenodd" d="M58.1388 26.1108C55.5939 25.8412 53.5604 23.8581 53.2137 21.337C51.7589 21.6302 50.0874 22.2252 48.2869 23.078C43.572 25.4355 38.118 29.2709 33.0833 34.2369L40.3482 47.5905C37.2841 50.2368 34.2201 52.6045 31.156 54.5543L25.1254 43.471C19.2599 51.5672 16.9832 58.6266 19.1783 60.8217C22.1031 63.7465 33.663 58.5933 44.5265 47.4513C52.45 39.4275 57.1954 31.1871 58.1388 26.1108ZM23.3221 40.1569C16.4197 49.2551 12.4675 58.8463 16.8106 63.1894C18.0641 64.4429 19.7354 65 21.6853 65C25.2174 65 29.7195 63.1719 34.3807 60.2495L35.195 61.7967C36.1699 63.6072 38.1198 64.7215 40.2089 64.7215C42.2981 64.7215 44.1087 63.6072 45.2229 61.7967C46.0585 60.1253 46.0585 58.0362 45.0836 56.2256L43.504 53.3158C44.7614 52.1925 45.9902 51.0216 47.1727 49.8189C54.9214 41.8636 61.3673 31.9923 61.9051 25.1511C63.3545 24.1452 64.3036 22.4689 64.3036 20.571C64.3036 17.4942 61.8093 15 58.7325 15C56.7426 15 54.9963 16.0433 54.0109 17.6128C51.947 17.8236 49.5584 18.5735 46.8942 19.8747C41.9803 22.2686 36.4965 26.1443 31.3709 31.0893L25.7243 20.7103C24.7493 18.8997 22.7995 17.7855 20.7103 17.7855C16.3928 17.7855 13.7465 22.3816 15.6964 26.1421L23.3221 40.1569Z" fill="#D05559"/>
<path d="M42.0196 20.7103C41.0447 18.8997 39.2341 17.7855 37.145 17.7855C32.8274 17.7855 30.0419 22.3816 32.131 26.1421L42.8553 45.78C45.9193 42.7159 48.5656 39.234 50.0976 35.3343L42.0196 20.7103Z" fill="#3D5588"/>
</g>
<defs>
<clipPath id="clip0_582_212">
<rect width="49.3036" height="50" fill="white" transform="translate(15 15)"/>
</clipPath>
</defs>
</svg>
