<svg width="80" height="80" viewBox="0 0 80 80" fill="none" xmlns="http://www.w3.org/2000/svg">
<g clip-path="url(#clip0_582_262)">
<path d="M21.7942 43.0883L14.7353 56.0294C12.5294 60.1471 15.4706 65 20.0294 65C22.2353 65 24.2942 63.8235 25.3236 61.9118C27.3824 58.0883 27.3824 53.5294 25.3236 49.7059L21.7942 43.0883Z" fill="#3D5588"/>
<path d="M37.3822 15C32.8234 15 29.8822 19.8529 32.0881 23.9706L52.6763 61.9118C53.7058 63.8235 55.7646 65 57.9705 65C60.1763 65 62.2352 63.8235 63.2646 61.9118C64.294 60.1471 64.294 57.7941 63.2646 56.0294L42.6763 18.2353C41.6469 16.1765 39.5881 15 37.3822 15Z" fill="#3D5588"/>
<path d="M48.1177 15H37.3824C32.8236 15 29.8824 19.8529 32.0883 23.8235L33.5589 26.6176H47.9706C50.9118 26.6176 53.2647 28.9706 53.2647 31.9118C53.2647 34.8529 51.0589 37.0588 48.1177 37.0588H35.6177L25.3236 18.0882C24.2942 16.1765 22.2353 15 20.0294 15C15.4706 15 12.5294 19.8529 14.7353 23.9706L35.3236 61.9118C36.353 63.8235 38.4118 65 40.6177 65C42.8236 65 44.8824 63.8235 45.9118 61.9118C46.9412 60.1471 46.9412 57.7941 45.9118 56.0294L41.9412 48.8235H47.9706C57.3824 48.8235 64.8824 41.1765 64.8824 31.9118C64.8824 22.6471 57.3824 15 48.1177 15Z" fill="#D05559"/>
</g>
<defs>
<clipPath id="clip0_582_262">
<rect width="51.0294" height="50" fill="white" transform="translate(14 15)"/>
</clipPath>
</defs>
</svg>
