<svg width="71" height="50" viewBox="0 0 71 50" fill="none" xmlns="http://www.w3.org/2000/svg">
<g clip-path="url(#clip0_1_70)">
<path d="M23.5294 0.294128C18.9706 0.294128 16.0294 5.14707 18.2353 9.26472L38.6764 46.9118C39.7059 48.8235 41.7647 50 43.9706 50C46.1764 50 48.2353 48.8235 49.2647 46.9118C50.2941 45.1471 50.2941 42.7941 49.2647 41.0294L28.8235 3.52942C27.7941 1.61766 25.7353 0.294128 23.5294 0.294128Z" fill="#3D5588"/>
<path d="M6.02939 0C1.47056 0 -1.47061 4.85294 0.73527 8.97059L21.3235 46.9118C22.3529 48.8235 24.4117 50 26.6176 50C28.8235 50 30.8823 48.8235 31.9117 46.9118C32.9412 45.1471 32.9412 42.7941 31.9117 41.0294L11.3235 3.08824C10.2941 1.17647 8.23527 0 6.02939 0Z" fill="#D05559"/>
<path d="M64.5588 0C69.1177 0 72.0588 4.85294 69.8529 8.97059L49.2647 46.9118C48.2353 48.8235 46.1765 50 43.9706 50C41.7647 50 39.7059 48.8235 38.6765 46.9118C37.6471 45.1471 37.6471 42.7941 38.6765 41.0294L59.2647 3.23529C60.2941 1.17647 62.3529 0 64.5588 0Z" fill="#3D5588"/>
<path d="M44.1176 24.7059L52.5 8.82353C54.8529 4.85294 51.9117 0 47.3529 0C45.147 0 43.0882 1.17647 42.0588 3.08824C39.1176 8.67647 39.1176 15.4412 42.2059 21.0294L44.1176 24.7059Z" fill="#D05559"/>
</g>
<defs>
<clipPath id="clip0_1_70">
<rect width="70.5882" height="50" fill="white"/>
</clipPath>
</defs>
</svg>
