<svg width="50" height="50" viewBox="0 0 50 50" fill="none" xmlns="http://www.w3.org/2000/svg">
<g clip-path="url(#clip0_1_63)">
<path d="M46.3788 41.2256L34.9582 20.3343C33.4261 24.0947 30.6406 27.7159 27.7158 30.7799L36.4902 46.7966C37.4651 48.6072 39.415 49.7214 41.5041 49.7214C43.5933 49.7214 45.4038 48.6072 46.518 46.7966C47.3537 45.1253 47.3537 43.0362 46.3788 41.2256Z" fill="#3D5588"/>
<path fill-rule="evenodd" clip-rule="evenodd" d="M43.1388 11.1108C40.5939 10.8412 38.5604 8.85809 38.2137 6.33701C36.7589 6.6302 35.0874 7.22515 33.2869 8.078C28.572 10.4355 23.118 14.2709 18.0833 19.2369L25.3482 32.5905C22.2841 35.2368 19.2201 37.6045 16.156 39.5543L10.1254 28.471C4.25992 36.5672 1.98315 43.6266 4.17832 45.8217C7.10311 48.7465 18.663 43.5933 29.5265 32.4513C37.45 24.4275 42.1954 16.1871 43.1388 11.1108ZM8.32214 25.1569C1.41973 34.2551 -2.53249 43.8463 1.81063 48.1894C3.06411 49.4429 4.73542 50 6.68528 50C10.2174 50 14.7195 48.1719 19.3807 45.2495L20.195 46.7967C21.1699 48.6072 23.1198 49.7215 25.2089 49.7215C27.2981 49.7215 29.1087 48.6072 30.2229 46.7967C31.0585 45.1253 31.0585 43.0362 30.0836 41.2256L28.504 38.3158C29.7614 37.1925 30.9902 36.0216 32.1727 34.8189C39.9214 26.8636 46.3673 16.9923 46.9051 10.1511C48.3545 9.14518 49.3036 7.46894 49.3036 5.57103C49.3036 2.49424 46.8093 0 43.7325 0C41.7426 0 39.9963 1.04332 39.0109 2.61278C36.947 2.82365 34.5584 3.57352 31.8942 4.87465C26.9803 7.26859 21.4965 11.1443 16.3709 16.0893L10.7243 5.71031C9.74933 3.89972 7.79947 2.78551 5.71033 2.78551C1.39278 2.78551 -1.25345 7.38161 0.696406 11.1421L8.32214 25.1569Z" fill="#D05559"/>
<path d="M27.0195 5.71031C26.0446 3.89972 24.234 2.78551 22.1448 2.78551C17.8273 2.78551 15.0418 7.38162 17.1309 11.1421L27.8551 30.7799C30.9192 27.7159 33.5655 24.234 35.0975 20.3343L27.0195 5.71031Z" fill="#3D5588"/>
</g>
<defs>
<clipPath id="clip0_1_63">
<rect width="49.3036" height="50" fill="white"/>
</clipPath>
</defs>
</svg>
