<svg width="80" height="80" viewBox="0 0 80 80" fill="none" xmlns="http://www.w3.org/2000/svg">
<g clip-path="url(#clip0_582_229)">
<path d="M28.5294 15.2941C23.9706 15.2941 21.0294 20.147 23.2353 24.2647L43.6765 61.9117C44.7059 63.8235 46.7647 64.9999 48.9706 64.9999C51.1765 64.9999 53.2353 63.8235 54.2647 61.9117C55.2942 60.147 55.2942 57.7941 54.2647 56.0294L33.8236 18.5294C32.7942 16.6176 30.7353 15.2941 28.5294 15.2941Z" fill="#3D5588"/>
<path d="M11.0294 15C6.47062 15 3.52945 19.8529 5.73533 23.9706L26.3236 61.9118C27.353 63.8235 29.4118 65 31.6177 65C33.8236 65 35.8824 63.8235 36.9118 61.9118C37.9412 60.1471 37.9412 57.7941 36.9118 56.0294L16.3236 18.0882C15.2942 16.1765 13.2353 15 11.0294 15Z" fill="#D05559"/>
<path d="M69.5587 15C74.1175 15 77.0587 19.8529 74.8528 23.9706L54.2646 61.9118C53.2352 63.8235 51.1764 65 48.9705 65C46.7646 65 44.7058 63.8235 43.6764 61.9118C42.6469 60.1471 42.6469 57.7941 43.6764 56.0294L64.2646 18.2353C65.294 16.1765 67.3528 15 69.5587 15Z" fill="#3D5588"/>
<path d="M49.1178 39.7059L57.5001 23.8235C59.853 19.8529 56.9119 15 52.353 15C50.1472 15 48.0883 16.1765 47.0589 18.0882C44.1178 23.6765 44.1178 30.4412 47.206 36.0294L49.1178 39.7059Z" fill="#D05559"/>
</g>
<defs>
<clipPath id="clip0_582_229">
<rect width="70.5882" height="50" fill="white" transform="translate(5 15)"/>
</clipPath>
</defs>
</svg>
